<mxfile host="app.diagrams.net" modified="2022-05-03T12:43:56.507Z" agent="5.0 (Windows NT 10.0; Win64; x64) AppleWebKit/537.36 (KHTML, like Gecko) Chrome/100.0.4896.127 Safari/537.36" etag="0cdPwubS4Xhm-qTUshoD" version="17.5.0" type="github">
  <diagram id="mvP9ER26cJ-T-2d9UxiZ" name="Page-1">
    <mxGraphModel dx="1422" dy="794" grid="1" gridSize="10" guides="1" tooltips="1" connect="1" arrows="1" fold="1" page="1" pageScale="1" pageWidth="827" pageHeight="1169" math="0" shadow="0">
      <root>
        <mxCell id="0" />
        <mxCell id="1" parent="0" />
        <mxCell id="c3ZTwBl-F4UqeKFS8ywB-8" value="" style="shape=cylinder3;whiteSpace=wrap;html=1;boundedLbl=1;backgroundOutline=1;size=15;" vertex="1" parent="1">
          <mxGeometry x="530" y="20" width="130" height="170" as="geometry" />
        </mxCell>
        <mxCell id="c3ZTwBl-F4UqeKFS8ywB-9" value="Actor" style="shape=umlActor;verticalLabelPosition=bottom;verticalAlign=top;html=1;outlineConnect=0;" vertex="1" parent="1">
          <mxGeometry x="50" y="30" width="70" height="130" as="geometry" />
        </mxCell>
        <mxCell id="c3ZTwBl-F4UqeKFS8ywB-11" value="&lt;font style=&quot;font-size: 19px&quot;&gt;Pixel Database&lt;/font&gt;" style="text;html=1;strokeColor=none;fillColor=none;align=center;verticalAlign=middle;whiteSpace=wrap;rounded=0;" vertex="1" parent="1">
          <mxGeometry x="540" y="80" width="110" height="80" as="geometry" />
        </mxCell>
        <mxCell id="c3ZTwBl-F4UqeKFS8ywB-14" value="" style="endArrow=classic;html=1;rounded=0;fontSize=19;" edge="1" parent="1">
          <mxGeometry width="50" height="50" relative="1" as="geometry">
            <mxPoint x="140" y="70" as="sourcePoint" />
            <mxPoint x="520" y="70" as="targetPoint" />
          </mxGeometry>
        </mxCell>
        <mxCell id="c3ZTwBl-F4UqeKFS8ywB-15" value="&lt;font style=&quot;font-size: 17px&quot;&gt;&amp;nbsp;[1] Modif pixel : (x,y) {color: [r,g,b,a] , user : &#39;username&#39;}&lt;/font&gt;" style="text;html=1;strokeColor=none;fillColor=none;align=center;verticalAlign=middle;whiteSpace=wrap;rounded=0;fontSize=19;" vertex="1" parent="1">
          <mxGeometry x="80" y="30" width="460" height="35" as="geometry" />
        </mxCell>
        <mxCell id="c3ZTwBl-F4UqeKFS8ywB-18" value="" style="endArrow=classic;html=1;rounded=0;fontSize=17;" edge="1" parent="1">
          <mxGeometry width="50" height="50" relative="1" as="geometry">
            <mxPoint x="520" y="120" as="sourcePoint" />
            <mxPoint x="130" y="120" as="targetPoint" />
          </mxGeometry>
        </mxCell>
        <mxCell id="c3ZTwBl-F4UqeKFS8ywB-19" value="[2] Modifications effectuÃ©es" style="text;html=1;strokeColor=none;fillColor=none;align=center;verticalAlign=middle;whiteSpace=wrap;rounded=0;fontSize=17;" vertex="1" parent="1">
          <mxGeometry x="15" y="120" width="590" height="30" as="geometry" />
        </mxCell>
        <mxCell id="c3ZTwBl-F4UqeKFS8ywB-22" value="" style="endArrow=classic;html=1;rounded=0;fontSize=17;fillColor=#f8cecc;strokeColor=#b85450;" edge="1" parent="1">
          <mxGeometry width="50" height="50" relative="1" as="geometry">
            <mxPoint x="510" y="160" as="sourcePoint" />
            <mxPoint x="140" y="160" as="targetPoint" />
          </mxGeometry>
        </mxCell>
        <mxCell id="c3ZTwBl-F4UqeKFS8ywB-24" value="&lt;font color=&quot;#ff3333&quot;&gt;[2]&#39; Cooldown : 60s Modifications impossibles&lt;/font&gt;" style="text;html=1;strokeColor=none;fillColor=none;align=center;verticalAlign=middle;whiteSpace=wrap;rounded=0;fontSize=17;" vertex="1" parent="1">
          <mxGeometry x="140" y="160" width="400" height="30" as="geometry" />
        </mxCell>
        <mxCell id="c3ZTwBl-F4UqeKFS8ywB-26" value="" style="endArrow=none;html=1;rounded=0;fontSize=17;fontColor=#FF3333;entryX=0.5;entryY=1;entryDx=0;entryDy=0;entryPerimeter=0;jumpSize=12;strokeWidth=4;" edge="1" parent="1" target="c3ZTwBl-F4UqeKFS8ywB-8">
          <mxGeometry width="50" height="50" relative="1" as="geometry">
            <mxPoint x="595" y="520" as="sourcePoint" />
            <mxPoint x="330" y="220" as="targetPoint" />
          </mxGeometry>
        </mxCell>
        <mxCell id="c3ZTwBl-F4UqeKFS8ywB-27" value="&lt;font color=&quot;#000000&quot;&gt;user 1&lt;/font&gt;" style="rounded=0;whiteSpace=wrap;html=1;fontSize=17;fontColor=#FF3333;" vertex="1" parent="1">
          <mxGeometry x="250" y="310" width="120" height="60" as="geometry" />
        </mxCell>
        <mxCell id="c3ZTwBl-F4UqeKFS8ywB-28" value="&lt;font color=&quot;#000000&quot;&gt;user 2&lt;/font&gt;" style="rounded=0;whiteSpace=wrap;html=1;fontSize=17;fontColor=#FF3333;" vertex="1" parent="1">
          <mxGeometry x="250" y="400" width="120" height="60" as="geometry" />
        </mxCell>
        <mxCell id="c3ZTwBl-F4UqeKFS8ywB-29" value="&lt;font color=&quot;#000000&quot;&gt;user 3&lt;/font&gt;" style="rounded=0;whiteSpace=wrap;html=1;fontSize=17;fontColor=#FF3333;" vertex="1" parent="1">
          <mxGeometry x="250" y="490" width="120" height="60" as="geometry" />
        </mxCell>
        <mxCell id="c3ZTwBl-F4UqeKFS8ywB-30" value="" style="endArrow=classic;html=1;rounded=0;fontSize=17;fontColor=#000000;strokeWidth=4;jumpSize=12;entryX=1;entryY=0.5;entryDx=0;entryDy=0;" edge="1" parent="1" target="c3ZTwBl-F4UqeKFS8ywB-29">
          <mxGeometry width="50" height="50" relative="1" as="geometry">
            <mxPoint x="590" y="520" as="sourcePoint" />
            <mxPoint x="330" y="320" as="targetPoint" />
          </mxGeometry>
        </mxCell>
        <mxCell id="c3ZTwBl-F4UqeKFS8ywB-31" value="" style="endArrow=classic;html=1;rounded=0;fontSize=17;fontColor=#000000;strokeWidth=4;jumpSize=12;entryX=1;entryY=0.5;entryDx=0;entryDy=0;" edge="1" parent="1" target="c3ZTwBl-F4UqeKFS8ywB-28">
          <mxGeometry width="50" height="50" relative="1" as="geometry">
            <mxPoint x="590" y="430" as="sourcePoint" />
            <mxPoint x="550" y="390" as="targetPoint" />
          </mxGeometry>
        </mxCell>
        <mxCell id="c3ZTwBl-F4UqeKFS8ywB-32" value="" style="endArrow=classic;html=1;rounded=0;fontSize=17;fontColor=#000000;strokeWidth=4;jumpSize=12;entryX=1;entryY=0.5;entryDx=0;entryDy=0;" edge="1" parent="1" target="c3ZTwBl-F4UqeKFS8ywB-27">
          <mxGeometry width="50" height="50" relative="1" as="geometry">
            <mxPoint x="590" y="340" as="sourcePoint" />
            <mxPoint x="550" y="330" as="targetPoint" />
          </mxGeometry>
        </mxCell>
        <mxCell id="c3ZTwBl-F4UqeKFS8ywB-33" value="Update canvas (x,y)&amp;nbsp;" style="text;html=1;align=center;verticalAlign=middle;resizable=0;points=[];autosize=1;strokeColor=none;fillColor=none;fontSize=17;fontColor=#000000;rotation=-90;" vertex="1" parent="1">
          <mxGeometry x="530" y="300" width="170" height="30" as="geometry" />
        </mxCell>
      </root>
    </mxGraphModel>
  </diagram>
</mxfile>
